<?xml version="1.0" encoding="UTF-8"?>
<svg width="752pt" height="752pt" version="1.1" viewBox="0 0 752 752" xmlns="http://www.w3.org/2000/svg">
 <defs>
  <clipPath id="a">
   <path d="m257 139.21h238v473.58h-238z"/>
  </clipPath>
 </defs>
 <path d="m410.93 378.93c-5.1445-5.9922-15.91-14.801-32.93-27.047-6.5469-4.6992-19.867-14.355-29.598-21.348l-8.5859-6.3281c-1.7422 2.0039-3.375 4.1055-4.8828 6.2891-3.5234 5.207-5.3516 11.375-5.2305 17.664 0.11719 6.2852 2.1797 12.379 5.8945 17.449 5.918 7.5898 12.656 14.5 20.09 20.609 2.2578 1.7383 17.168 12.691 35.703 26.27l8.3242 6.1055c4.957 3.6992 9.5078 7.0312 12.914 9.3984 8.9531-10.398 10.617-16.207 10.617-23.68 0.003906-7.4766-1.2188-12.508-12.316-25.383z"/>
 <g clip-path="url(#a)">
  <path d="m415.22 606.61c14.625-4.3516 27.926-12.285 38.703-23.086 6.6719-5.8164 12.074-12.945 15.871-20.941 5.7656-11.469 8.6719-24.164 8.4727-37 0-25.309-8.2891-44.141-29.598-66.598 20.164-15.578 34.484-33.297 40.477-50.465 13.355-38.625 0.70312-75.18-38.664-111.85-15.715-14.344-32.863-27.039-51.172-37.887-30.004-18.941-42.363-29.082-47.062-38.59-6.5469-13.133-4.5508-21.867 6.8828-30.191v0.003907c5.0625-3.7695 11.324-5.5586 17.613-5.0352h2.9609c7.0312 0.25781 7.3984 0.44531 9.2109 1.3672 5.0703 2.5547 5.0703 5.5508 5.0703 6.6602v0.003906c-0.23047 3.3984-0.64844 6.7852-1.2578 10.137-2.1094 11.617-2.332 16.723 0.44531 25.898 4.8828 16.242 21.312 27.637 39.883 27.637 6.3984 0 12.719-1.4258 18.496-4.1797 15.688-7.6602 24.195-22.199 24.051-40.699 0-16.426-7.3984-31.375-22.457-45.656-17.945-17.129-45.066-26.934-74.812-26.934-4.6953-0.003907-9.3867 0.23047-14.059 0.70312-28.898 2.4648-55.527 16.652-73.703 39.254-13.773 17.148-19.805 39.246-16.648 61.012 2.9609 19.387 12.137 36.035 29.598 53.758-17.426 14.801-29.082 29.266-36.59 45.211-7.8789 16.613-11.098 34.41-8.5078 48.727 3.2188 19.09 13.32 37 31.82 56.312s37.664 34.074 66.598 51.797c46.914 29.117 48.652 37.555 47.801 51.094l-0.003906 0.003906c-0.14062 4.6055-2.2227 8.9336-5.7344 11.914-5.2148 4.8477-11.098 7.6211-24.938 7.6211h-0.70312c-11.508 0-13.098-1.6641-15.059-3.6992h0.003906c0.24219-2.8398 0.80078-5.6445 1.6641-8.3633 0.015625-0.070313 0.015625-0.14844 0-0.21875 3.6992-11.582 5.3633-21.312 1.8516-30.93l-0.003906-0.003906c-3.9102-10.086-11.406-18.371-21.051-23.27-4.8398-2.6836-10.301-4.0469-15.836-3.9609h-4.957c-10.785-0.27344-21.191 3.9961-28.676 11.766-9.4336 9.2852-12.914 17.98-12.914 32.188h0.003906c-0.22266 6.3828 0.65234 12.75 2.5898 18.836 8.0664 23.789 30.414 42.918 58.348 49.949v-0.003906c10.91 2.5703 22.09 3.8125 33.297 3.6992 14.453 0.16016 28.848-1.8594 42.695-5.9922zm-32.559-182c-17.094-12.504-33.297-24.457-35.961-26.492-8.7344-7.0312-16.574-15.109-23.348-24.047-5.3438-7.4961-8.2812-16.441-8.418-25.648-0.14062-9.207 2.5273-18.238 7.6406-25.891 4.4023-6.625 13.875-16.836 15.727-16.836 6.5117 3.8906 12.812 8.125 18.867 12.691l29.598 21.387c18.5 13.172 29.598 22.422 35.48 29.375 12.211 14.133 15.91 22.422 15.91 35.223 0.003906 12.801-4.2148 21.977-15.242 34.52-3.6992 4.1445-5.1445 6.8438-8.0273 6.8438-4.1445-0.035157-11.246-5.7695-32.227-21.125z"/>
 </g>
</svg>
